<?xml version="1.0" standalone="no"?>
<!DOCTYPE svg PUBLIC "-//W3C//DTD SVG 20010904//EN"
 "http://www.w3.org/TR/2001/REC-SVG-20010904/DTD/svg10.dtd">
<svg version="1.0" xmlns="http://www.w3.org/2000/svg"
 width="363.000000pt" height="337.000000pt" viewBox="0 0 363.000000 337.000000"
 preserveAspectRatio="xMidYMid meet">

<g transform="translate(0.000000,337.000000) scale(0.100000,-0.100000)"
fill="#000000" stroke="none">
<path d="M1735 3048 c-25 -13 -215 -200 -215 -210 0 -24 35 2 120 87 152 152
169 151 345 -25 66 -66 123 -120 127 -120 5 0 8 6 8 13 0 19 -231 244 -264
256 -35 14 -95 14 -121 -1z"/>
<path d="M1681 2675 c-40 -42 -88 -101 -108 -132 l-35 -55 91 -92 c67 -67 90
-97 85 -109 -3 -9 -9 -17 -12 -17 -4 0 -46 39 -95 88 -99 98 -96 99 -123 -11
-20 -84 -15 -237 11 -310 26 -72 104 -184 183 -262 l72 -70 0 -132 c0 -73 -4
-133 -9 -133 -4 0 -20 9 -34 20 -18 14 -28 17 -33 9 -9 -15 42 -56 89 -70 73
-24 88 -12 386 282 l273 271 -118 121 c-66 67 -121 124 -123 127 -3 3 2 -6 11
-21 9 -14 57 -65 107 -115 50 -49 91 -94 91 -99 0 -15 -513 -525 -528 -525 -9
0 -12 36 -12 132 l0 131 88 91 c132 138 192 266 192 416 0 79 -18 165 -49 236
l-19 42 84 83 84 84 88 -88 c48 -48 91 -87 95 -87 23 0 -4 36 -88 120 l-95 95
-88 -88 c-48 -48 -90 -87 -93 -87 -4 0 -29 30 -57 68 -27 37 -74 90 -103 117
l-54 50 -6 -205 c-3 -113 -6 -206 -7 -208 -1 -2 -12 -2 -24 0 -23 3 -23 4 -26
206 -1 111 -6 202 -11 202 -5 0 -41 -34 -80 -75z m246 -49 c33 -36 68 -81 78
-100 l20 -36 -80 -80 c-44 -44 -83 -80 -87 -80 -5 0 -8 81 -8 180 0 102 4 180
9 180 5 0 36 -29 68 -64z m153 -253 c25 -81 27 -225 4 -304 -8 -30 -33 -84
-55 -120 -40 -67 -148 -189 -168 -189 -8 0 -11 66 -11 215 0 181 3 220 16 240
11 16 14 34 9 52 -5 23 3 36 76 109 95 96 98 96 129 -3z m-248 -80 c10 -9 18
-25 18 -36 0 -54 -76 -78 -105 -33 -37 56 36 115 87 69z m-7 -498 l0 -370 -25
0 -25 0 -3 360 c-1 198 0 366 3 373 3 7 15 12 27 10 l23 -3 0 -370z"/>
<path d="M2529 2623 c-32 -31 -57 -59 -54 -62 3 -2 31 21 63 52 79 78 93 77
191 -15 l76 -72 -76 77 c-99 99 -115 101 -200 20z"/>
<path d="M1266 2591 c-53 -53 -74 -81 -66 -86 8 -5 37 17 78 59 l67 66 86 -86
c60 -60 88 -81 92 -71 3 9 -28 48 -87 106 l-91 91 -79 -79z"/>
<path d="M2752 2377 c-56 -56 -102 -107 -102 -112 0 -6 7 -19 15 -30 15 -18
18 -16 84 49 65 65 69 70 55 91 -13 20 -11 24 21 55 l35 34 100 -99 c59 -60
102 -111 106 -128 6 -26 -8 -43 -202 -238 -220 -220 -229 -227 -287 -198 -21
10 -21 10 -3 -5 11 -9 35 -16 53 -16 29 0 53 21 226 193 210 209 232 235 223
269 -3 13 -54 71 -113 131 l-108 107 -103 -103z"/>
<path d="M2273 2367 c-83 -85 -116 -137 -99 -154 3 -4 6 4 6 17 0 15 31 54 97
122 l97 98 101 -100 c55 -55 105 -100 110 -100 5 0 -37 47 -95 105 -58 58
-109 105 -115 105 -6 0 -52 -42 -102 -93z"/>
<path d="M2740 2192 c-63 -65 -134 -135 -158 -157 l-43 -38 -55 54 -54 53 -21
-21 -22 -21 78 -77 78 -77 181 181 c155 155 179 183 170 198 -6 10 -18 19 -25
21 -8 1 -66 -51 -129 -116z"/>
<path d="M2397 2242 c-16 -17 -12 -22 56 -90 40 -40 77 -72 83 -72 6 0 23 14
39 30 28 29 28 30 9 45 -10 8 -28 13 -38 10 -14 -3 -35 11 -68 45 -27 28 -53
50 -57 50 -4 0 -15 -8 -24 -18z"/>
<path d="M2600 2205 c0 -8 7 -15 15 -15 8 0 15 7 15 15 0 8 -7 15 -15 15 -8 0
-15 -7 -15 -15z"/>
<path d="M1195 1950 c-10 -17 226 -253 239 -240 7 7 -29 50 -110 131 -82 82
-124 117 -129 109z"/>
<path d="M980 1000 c-18 -18 -20 -33 -20 -180 0 -147 2 -162 20 -180 25 -25
95 -27 128 -4 21 15 22 21 22 184 0 163 -1 169 -22 184 -33 23 -103 21 -128
-4z m105 -180 l0 -165 -40 0 -40 0 -3 155 c-1 85 0 160 3 168 3 9 18 12 42 10
l38 -3 0 -165z"/>
<path d="M1883 1005 c-23 -16 -23 -20 -23 -219 0 -144 3 -205 12 -214 16 -16
120 -16 136 0 8 8 12 49 12 120 l0 108 -35 0 c-24 0 -35 -5 -35 -15 0 -8 9
-15 20 -15 20 0 21 -5 18 -87 l-3 -88 -35 -3 c-55 -6 -60 10 -60 187 0 200 1
203 54 199 l41 -3 3 -57 c2 -43 7 -58 17 -58 12 0 15 14 15 63 0 34 -4 68 -9
76 -14 21 -101 26 -128 6z"/>
<path d="M2878 1010 c-20 -12 -32 -77 -23 -130 5 -31 19 -53 56 -90 53 -53 69
-84 69 -134 0 -46 -20 -68 -55 -64 -29 3 -30 5 -35 63 -4 44 -9 60 -20 60 -21
0 -20 -132 1 -146 21 -13 113 -11 127 3 7 7 12 41 12 82 0 78 -6 92 -78 164
-42 42 -43 46 -40 100 l3 57 40 0 40 0 3 -52 c2 -38 7 -53 18 -53 11 0 14 14
14 59 0 51 -3 62 -22 75 -25 18 -84 21 -110 6z"/>
<path d="M630 785 l0 -225 69 0 c95 0 101 7 101 120 0 62 -4 93 -14 102 -11
12 -11 17 0 33 18 24 19 166 2 183 -7 7 -42 12 -85 12 l-73 0 0 -225z m130
176 c11 -21 13 -83 4 -118 -6 -23 -44 -37 -75 -28 -17 6 -19 16 -19 86 l0 79
40 0 c29 0 42 -5 50 -19z m0 -200 c14 -28 13 -134 -3 -155 -9 -12 -23 -17 -47
-14 l-35 3 -3 93 -3 92 40 0 c30 0 43 -5 51 -19z"/>
<path d="M860 785 c0 -218 1 -225 20 -225 19 0 20 7 20 225 0 218 -1 225 -20
225 -19 0 -20 -7 -20 -225z"/>
<path d="M1190 785 c0 -218 1 -225 20 -225 19 0 20 7 20 225 0 218 -1 225 -20
225 -19 0 -20 -7 -20 -225z"/>
<path d="M1300 785 c0 -193 2 -225 15 -225 13 0 15 27 16 178 l1 177 39 -155
c21 -85 41 -165 44 -177 3 -14 13 -23 25 -23 19 0 20 7 20 225 0 193 -2 225
-15 225 -13 0 -15 -26 -16 -167 l-1 -168 -41 168 c-38 156 -42 167 -64 167
l-23 0 0 -225z"/>
<path d="M1500 996 c0 -9 12 -16 28 -18 l27 -3 3 -207 c2 -176 5 -208 17 -208
13 0 15 31 15 210 l0 210 25 0 c16 0 25 6 25 15 0 12 -14 15 -70 15 -54 0 -70
-3 -70 -14z"/>
<path d="M1687 1003 c-4 -3 -7 -105 -7 -225 l0 -218 65 0 c51 0 65 3 65 15 0
11 -12 15 -45 15 l-45 0 0 94 0 95 37 3 c50 4 55 26 6 30 l-38 3 -3 83 -3 82
46 0 c33 0 45 4 45 15 0 12 -13 15 -58 15 -32 0 -62 -3 -65 -7z"/>
<path d="M2090 785 c0 -193 2 -225 15 -225 12 0 15 18 15 106 l0 105 43 -3 42
-3 3 -80 c3 -107 8 -125 33 -125 15 0 19 5 15 16 -3 9 -6 53 -6 99 0 58 -4 88
-14 97 -11 12 -11 17 0 33 18 24 19 176 2 193 -7 7 -40 12 -80 12 l-68 0 0
-225z m115 110 l0 -80 -42 -3 -43 -3 0 86 0 86 43 -3 42 -3 0 -80z"/>
<path d="M2356 988 c-13 -57 -56 -317 -56 -336 0 -32 28 -27 32 6 3 24 7 27
46 30 40 3 43 1 53 -27 6 -18 18 -31 28 -31 15 0 13 18 -15 188 -31 185 -31
187 -57 190 -21 3 -27 -2 -31 -20z m59 -265 c-2 -7 -15 -13 -27 -13 -44 0 -47
9 -32 105 28 173 25 171 46 40 10 -66 16 -126 13 -132z"/>
<path d="M2530 785 l0 -225 55 0 c41 0 55 4 55 14 0 10 -13 16 -37 18 l-38 3
-3 208 c-2 175 -5 207 -17 207 -13 0 -15 -33 -15 -225z"/>
<path d="M2680 785 l0 -225 65 0 c51 0 65 3 65 15 0 11 -12 15 -45 15 l-45 0
0 95 0 95 35 0 c46 0 49 27 3 32 l-33 3 -3 83 -3 82 46 0 c33 0 45 4 45 15 0
12 -14 15 -65 15 l-65 0 0 -225z"/>
<path d="M545 568 c-2 -7 -3 -53 -2 -103 l2 -90 43 -2 42 -1 0 43 c0 24 2 49
5 57 3 7 -1 22 -10 33 -14 19 -16 19 -26 2 -5 -9 -14 -15 -20 -12 -15 10 -10
55 6 61 24 10 17 24 -10 24 -14 0 -28 -6 -30 -12z m55 -133 c0 -24 -5 -35 -15
-35 -10 0 -15 11 -15 35 0 24 5 35 15 35 10 0 15 -11 15 -35z"/>
<path d="M955 570 c-4 -6 28 -10 90 -10 62 0 94 4 90 10 -3 6 -44 10 -90 10
-46 0 -87 -4 -90 -10z"/>
<path d="M2295 570 c-4 -6 28 -10 89 -10 57 0 96 4 96 10 0 6 -36 10 -89 10
-50 0 -93 -4 -96 -10z"/>
<path d="M707 513 c-4 -3 -7 -25 -7 -48 0 -33 6 -47 30 -70 33 -31 42 -85 15
-85 -9 0 -15 9 -15 25 0 16 -6 25 -15 25 -11 0 -15 -11 -15 -40 l0 -40 45 0
c44 0 45 1 46 33 2 50 -1 59 -32 95 -33 37 -40 86 -11 80 9 -2 18 -13 20 -26
2 -12 8 -22 13 -22 16 0 22 30 11 56 -9 18 -19 24 -45 24 -19 0 -37 -3 -40 -7z"/>
<path d="M870 501 c-11 -21 -14 -179 -4 -205 4 -11 19 -16 49 -16 40 0 43 2
49 31 9 48 7 155 -4 183 -8 21 -16 26 -44 26 -25 0 -38 -6 -46 -19z m60 -101
c0 -70 -3 -90 -14 -90 -19 0 -26 23 -26 90 0 67 7 90 26 90 11 0 14 -20 14
-90z"/>
<path d="M1040 400 l0 -120 35 0 c24 0 35 5 35 15 0 8 -9 15 -20 15 -19 0 -20
7 -20 105 0 87 -3 105 -15 105 -12 0 -15 -20 -15 -120z"/>
<path d="M1177 514 c-9 -9 -9 -181 -1 -212 6 -20 12 -23 48 -20 l41 3 3 118
c2 93 0 118 -10 115 -9 -3 -14 -35 -16 -106 -2 -80 -6 -102 -17 -102 -11 0
-15 22 -17 102 -3 94 -11 121 -31 102z"/>
<path d="M1350 501 c-11 -21 -14 -161 -4 -198 5 -19 13 -23 50 -23 38 0 44 3
50 24 8 32 2 69 -13 73 -7 3 -13 -9 -15 -29 -2 -22 -9 -34 -20 -36 -16 -3 -18
6 -18 87 0 75 3 91 15 91 9 0 18 -12 22 -30 3 -17 11 -29 17 -27 16 5 19 42 6
66 -15 28 -75 29 -90 2z"/>
<path d="M1520 401 c0 -102 2 -121 15 -121 13 0 15 17 13 117 -2 82 -7 118
-15 121 -10 3 -13 -25 -13 -117z"/>
<path d="M1632 508 c-13 -13 -18 -182 -6 -212 4 -11 19 -16 50 -16 l45 0 -3
118 -3 117 -35 3 c-19 2 -41 -3 -48 -10z m58 -109 c0 -81 -2 -90 -17 -87 -15
3 -19 16 -21 77 -3 83 1 101 23 101 12 0 15 -16 15 -91z"/>
<path d="M1800 400 c0 -73 4 -120 10 -120 6 0 10 27 10 60 0 33 4 60 9 60 6 0
15 -27 22 -60 9 -48 15 -60 30 -60 18 0 19 9 19 120 0 73 -4 120 -10 120 -5 0
-10 -25 -10 -55 0 -63 -15 -73 -24 -17 -11 62 -17 72 -37 72 -18 0 -19 -8 -19
-120z"/>
<path d="M1980 400 l0 -120 35 0 c24 0 35 5 35 15 0 8 -9 15 -20 15 -17 0 -20
7 -20 40 0 29 4 40 15 40 8 0 15 7 15 15 0 8 -7 15 -15 15 -10 0 -15 11 -15
35 0 28 4 35 20 35 11 0 20 7 20 15 0 10 -11 15 -35 15 l-35 0 0 -120z"/>
<path d="M2127 513 c-4 -3 -7 -25 -7 -48 0 -33 6 -47 30 -70 33 -31 42 -85 15
-85 -9 0 -15 9 -15 25 0 16 -6 25 -16 25 -12 0 -14 -9 -12 -37 3 -36 5 -38 42
-41 45 -4 56 7 56 56 0 24 -9 42 -36 68 -23 23 -34 43 -32 57 4 29 32 28 36 0
2 -13 10 -23 18 -23 17 0 19 51 2 68 -13 13 -70 17 -81 5z"/>
<path d="M2387 513 c-4 -3 -7 -25 -7 -48 0 -33 6 -47 30 -70 33 -31 42 -85 15
-85 -9 0 -15 9 -15 25 0 16 -6 25 -15 25 -11 0 -15 -11 -15 -40 l0 -40 44 0
c31 0 46 5 50 16 13 35 5 66 -29 103 -21 23 -35 49 -35 65 0 34 27 35 36 1 3
-14 10 -25 15 -25 17 0 22 30 11 56 -9 18 -19 24 -45 24 -19 0 -37 -3 -40 -7z"/>
<path d="M2661 438 c-6 -46 -14 -100 -17 -120 -5 -30 -3 -38 10 -38 9 0 16 7
16 15 0 20 36 20 44 0 3 -8 12 -15 20 -15 15 0 15 7 -8 160 -9 65 -14 75 -32
78 -20 3 -23 -4 -33 -80z m43 -90 c-13 -21 -24 -4 -24 36 0 73 14 89 21 26 4
-30 5 -58 3 -62z"/>
<path d="M2927 514 c-4 -4 -7 -26 -7 -49 0 -33 6 -47 30 -70 35 -33 43 -89 13
-83 -10 2 -19 13 -21 26 -6 38 -22 24 -22 -18 l0 -40 45 0 45 0 0 48 c0 41 -5
53 -30 77 -19 19 -30 39 -30 57 0 34 27 39 32 6 2 -12 9 -23 16 -26 10 -3 12
6 10 34 -3 37 -5 39 -38 42 -20 2 -39 0 -43 -4z"/>
<path d="M2540 301 c0 -15 6 -21 21 -21 25 0 22 33 -4 38 -12 2 -17 -3 -17
-17z"/>
<path d="M2817 314 c-14 -15 -6 -34 14 -34 14 0 19 5 17 17 -3 18 -20 27 -31
17z"/>
</g>
</svg>
